<svg width="100%" viewBox="0 0 680 460" xmlns="http://www.w3.org/2000/svg">
<defs>
  <clipPath id="cp"><rect width="680" height="460" rx="18"/></clipPath>
  <linearGradient id="sky" x1="0" y1="0" x2="0" y2="1">
    <stop offset="0%" stop-color="#0b1e3a"/>
    <stop offset="45%" stop-color="#1e3f6e"/>
    <stop offset="75%" stop-color="#7b3d1e"/>
    <stop offset="100%" stop-color="#c4581a"/>
  </linearGradient>
  <linearGradient id="sunhalo" x1="0" y1="0" x2="0" y2="1">
    <stop offset="0%" stop-color="#f97316" stop-opacity="0"/>
    <stop offset="100%" stop-color="#f97316" stop-opacity="0.55"/>
  </linearGradient>
  <linearGradient id="river" x1="0" y1="0" x2="0" y2="1">
    <stop offset="0%" stop-color="#1c4f72"/>
    <stop offset="100%" stop-color="#0d2b3e"/>
  </linearGradient>
  <linearGradient id="road1" x1="0" y1="0" x2="1" y2="0">
    <stop offset="0%" stop-color="#fbbf24" stop-opacity="0"/>
    <stop offset="25%" stop-color="#fbbf24" stop-opacity="0.6"/>
    <stop offset="75%" stop-color="#fbbf24" stop-opacity="0.6"/>
    <stop offset="100%" stop-color="#fbbf24" stop-opacity="0"/>
  </linearGradient>
  <linearGradient id="road2" x1="0" y1="0" x2="1" y2="0">
    <stop offset="0%" stop-color="#60a5fa" stop-opacity="0.5"/>
    <stop offset="40%" stop-color="#60a5fa" stop-opacity="0"/>
    <stop offset="100%" stop-color="#60a5fa" stop-opacity="0"/>
  </linearGradient>
  <linearGradient id="bld1" x1="0" y1="0" x2="0" y2="1">
    <stop offset="0%" stop-color="#1e3a5f"/>
    <stop offset="100%" stop-color="#0d1f33"/>
  </linearGradient>
  <linearGradient id="bld2" x1="0" y1="0" x2="0" y2="1">
    <stop offset="0%" stop-color="#162d4a"/>
    <stop offset="100%" stop-color="#091624"/>
  </linearGradient>
  <linearGradient id="bld3" x1="0" y1="0" x2="0" y2="1">
    <stop offset="0%" stop-color="#243d5e"/>
    <stop offset="100%" stop-color="#111e2e"/>
  </linearGradient>
</defs>

<g clip-path="url(#cp)">
  <rect width="680" height="460" fill="url(#sky)"/>
  <circle cx="340" cy="340" r="200" fill="url(#sunhalo)" opacity="0.5"/>
  <circle cx="340" cy="460" r="90" fill="#f97316" opacity="0.22"/>

  <circle cx="90" cy="38" r="1.2" fill="#fff" opacity="0.85"/>
  <circle cx="155" cy="22" r="1" fill="#fff" opacity="0.7"/>
  <circle cx="220" cy="48" r="0.8" fill="#fff" opacity="0.8"/>
  <circle cx="295" cy="18" r="1.1" fill="#fff" opacity="0.75"/>
  <circle cx="390" cy="32" r="0.9" fill="#fff" opacity="0.65"/>
  <circle cx="470" cy="14" r="1.2" fill="#fff" opacity="0.8"/>
  <circle cx="540" cy="44" r="0.8" fill="#fff" opacity="0.7"/>
  <circle cx="610" cy="26" r="1" fill="#fff" opacity="0.85"/>
  <circle cx="50" cy="65" r="0.7" fill="#fff" opacity="0.6"/>
  <circle cx="640" cy="58" r="0.9" fill="#fff" opacity="0.7"/>
  <circle cx="120" cy="80" r="0.6" fill="#fff" opacity="0.5"/>
  <circle cx="500" cy="70" r="0.8" fill="#fff" opacity="0.6"/>

  <rect x="0" y="320" width="680" height="140" fill="url(#river)"/>
  <ellipse cx="170" cy="348" rx="60" ry="7" fill="#fbbf24" opacity="0.08"/>
  <ellipse cx="340" cy="365" rx="80" ry="8" fill="#f97316" opacity="0.1"/>
  <ellipse cx="520" cy="352" rx="50" ry="6" fill="#fbbf24" opacity="0.08"/>
  <path d="M0 338 Q170 330 340 342 Q510 354 680 338" stroke="#2a6a9a" stroke-width="1" fill="none" opacity="0.4"/>
  <path d="M0 360 Q200 352 400 362 Q560 370 680 358" stroke="#2a6a9a" stroke-width="0.8" fill="none" opacity="0.3"/>
  <path d="M0 380 Q150 374 340 380 Q520 386 680 376" stroke="#2a6a9a" stroke-width="0.7" fill="none" opacity="0.25"/>
  <rect x="0" y="316" width="680" height="8" fill="#1a3a52" opacity="0.6"/>

  <rect x="28" y="220" width="22" height="102" fill="url(#bld2)"/>
  <rect x="54" y="195" width="18" height="127" fill="url(#bld1)"/>
  <rect x="76" y="230" width="26" height="92" fill="url(#bld3)"/>
  <rect x="106" y="178" width="20" height="144" fill="url(#bld2)"/>
  <rect x="130" y="240" width="24" height="82" fill="url(#bld1)"/>
  <rect x="158" y="210" width="16" height="112" fill="url(#bld3)"/>
  <rect x="178" y="250" width="22" height="72" fill="url(#bld2)"/>
  <rect x="36" y="226" width="5" height="4" fill="#fbbf24" opacity="0.6"/>
  <rect x="44" y="226" width="5" height="4" fill="#fbbf24" opacity="0.3"/>
  <rect x="36" y="235" width="5" height="4" fill="#fbbf24" opacity="0.8"/>
  <rect x="44" y="235" width="5" height="4" fill="#fbbf24" opacity="0.5"/>
  <rect x="36" y="244" width="5" height="4" fill="#fbbf24" opacity="0.4"/>
  <rect x="58" y="202" width="5" height="4" fill="#fbbf24" opacity="0.7"/>
  <rect x="66" y="202" width="5" height="4" fill="#fbbf24" opacity="0.4"/>
  <rect x="58" y="212" width="5" height="4" fill="#fbbf24" opacity="0.9"/>
  <rect x="66" y="212" width="5" height="4" fill="#fbbf24" opacity="0.3"/>
  <rect x="58" y="222" width="5" height="4" fill="#fbbf24" opacity="0.6"/>
  <rect x="112" y="185" width="5" height="4" fill="#fbbf24" opacity="0.8"/>
  <rect x="112" y="195" width="5" height="4" fill="#fbbf24" opacity="0.5"/>
  <rect x="112" y="205" width="5" height="4" fill="#fbbf24" opacity="0.7"/>
  <rect x="112" y="215" width="5" height="4" fill="#fbbf24" opacity="0.3"/>
  <rect x="163" y="217" width="5" height="4" fill="#fbbf24" opacity="0.7"/>
  <rect x="163" y="228" width="5" height="4" fill="#fbbf24" opacity="0.4"/>

  <rect x="294" y="100" width="30" height="222" fill="url(#bld1)"/>
  <rect x="292" y="96" width="34" height="10" fill="#1e3f6e"/>
  <line x1="309" y1="96" x2="309" y2="62" stroke="#2a5a8a" stroke-width="1.5"/>
  <circle cx="309" cy="61" r="4" fill="#f97316" opacity="0.95"/>
  <circle cx="309" cy="61" r="7" fill="#f97316" opacity="0.2"/>
  <rect x="301" y="116" width="7" height="5" fill="#fbbf24" opacity="0.8"/>
  <rect x="312" y="116" width="7" height="5" fill="#fbbf24" opacity="0.5"/>
  <rect x="301" y="128" width="7" height="5" fill="#fbbf24" opacity="0.7"/>
  <rect x="312" y="128" width="7" height="5" fill="#fbbf24" opacity="0.9"/>
  <rect x="301" y="140" width="7" height="5" fill="#fbbf24" opacity="0.4"/>
  <rect x="312" y="140" width="7" height="5" fill="#fbbf24" opacity="0.8"/>
  <rect x="301" y="152" width="7" height="5" fill="#fbbf24" opacity="0.9"/>
  <rect x="312" y="152" width="7" height="5" fill="#fbbf24" opacity="0.3"/>
  <rect x="301" y="164" width="7" height="5" fill="#fbbf24" opacity="0.7"/>
  <rect x="312" y="164" width="7" height="5" fill="#fbbf24" opacity="0.6"/>
  <rect x="301" y="176" width="7" height="5" fill="#fbbf24" opacity="0.5"/>
  <rect x="312" y="176" width="7" height="5" fill="#fbbf24" opacity="0.85"/>
  <rect x="301" y="188" width="7" height="5" fill="#fbbf24" opacity="0.9"/>
  <rect x="312" y="188" width="7" height="5" fill="#fbbf24" opacity="0.4"/>
  <rect x="301" y="200" width="7" height="5" fill="#fbbf24" opacity="0.6"/>
  <rect x="312" y="200" width="7" height="5" fill="#fbbf24" opacity="0.7"/>
  <rect x="301" y="212" width="7" height="5" fill="#fbbf24" opacity="0.3"/>
  <rect x="312" y="212" width="7" height="5" fill="#fbbf24" opacity="0.9"/>
  <rect x="301" y="224" width="7" height="5" fill="#fbbf24" opacity="0.8"/>
  <rect x="312" y="224" width="7" height="5" fill="#fbbf24" opacity="0.5"/>
  <rect x="301" y="236" width="7" height="5" fill="#fbbf24" opacity="0.7"/>
  <rect x="312" y="236" width="7" height="5" fill="#fbbf24" opacity="0.4"/>
  <rect x="301" y="248" width="7" height="5" fill="#fbbf24" opacity="0.9"/>
  <rect x="312" y="248" width="7" height="5" fill="#fbbf24" opacity="0.6"/>
  <rect x="301" y="260" width="7" height="5" fill="#fbbf24" opacity="0.5"/>
  <rect x="312" y="260" width="7" height="5" fill="#fbbf24" opacity="0.8"/>
  <rect x="301" y="272" width="7" height="5" fill="#fbbf24" opacity="0.7"/>
  <rect x="312" y="272" width="7" height="5" fill="#fbbf24" opacity="0.3"/>
  <rect x="301" y="284" width="7" height="5" fill="#fbbf24" opacity="0.9"/>
  <rect x="312" y="284" width="7" height="5" fill="#fbbf24" opacity="0.6"/>

  <rect x="336" y="148" width="28" height="174" fill="url(#bld3)"/>
  <rect x="366" y="168" width="24" height="154" fill="url(#bld2)"/>
  <rect x="338" y="155" width="7" height="5" fill="#fbbf24" opacity="0.6"/>
  <rect x="349" y="155" width="7" height="5" fill="#fbbf24" opacity="0.8"/>
  <rect x="338" y="167" width="7" height="5" fill="#fbbf24" opacity="0.4"/>
  <rect x="349" y="167" width="7" height="5" fill="#fbbf24" opacity="0.9"/>
  <rect x="338" y="179" width="7" height="5" fill="#fbbf24" opacity="0.7"/>
  <rect x="349" y="179" width="7" height="5" fill="#fbbf24" opacity="0.5"/>
  <rect x="338" y="191" width="7" height="5" fill="#fbbf24" opacity="0.8"/>
  <rect x="349" y="191" width="7" height="5" fill="#fbbf24" opacity="0.3"/>
  <rect x="338" y="203" width="7" height="5" fill="#fbbf24" opacity="0.6"/>
  <rect x="349" y="203" width="7" height="5" fill="#fbbf24" opacity="0.9"/>
  <rect x="338" y="215" width="7" height="5" fill="#fbbf24" opacity="0.5"/>
  <rect x="349" y="215" width="7" height="5" fill="#fbbf24" opacity="0.7"/>
  <rect x="338" y="227" width="7" height="5" fill="#fbbf24" opacity="0.9"/>
  <rect x="349" y="227" width="7" height="5" fill="#fbbf24" opacity="0.4"/>
  <rect x="370" y="175" width="6" height="4" fill="#fbbf24" opacity="0.7"/>
  <rect x="380" y="175" width="6" height="4" fill="#fbbf24" opacity="0.4"/>
  <rect x="370" y="185" width="6" height="4" fill="#fbbf24" opacity="0.9"/>
  <rect x="380" y="185" width="6" height="4" fill="#fbbf24" opacity="0.6"/>
  <rect x="370" y="195" width="6" height="4" fill="#fbbf24" opacity="0.5"/>
  <rect x="380" y="195" width="6" height="4" fill="#fbbf24" opacity="0.8"/>

  <rect x="400" y="200" width="35" height="122" fill="url(#bld1)"/>
  <rect x="438" y="215" width="28" height="107" fill="url(#bld2)"/>
  <rect x="470" y="188" width="22" height="134" fill="url(#bld3)"/>
  <rect x="496" y="222" width="30" height="100" fill="url(#bld1)"/>
  <rect x="530" y="196" width="20" height="126" fill="url(#bld2)"/>
  <rect x="554" y="236" width="26" height="86" fill="url(#bld3)"/>
  <rect x="584" y="208" width="22" height="114" fill="url(#bld1)"/>
  <rect x="610" y="225" width="32" height="97" fill="url(#bld2)"/>
  <rect x="647" y="195" width="35" height="127" fill="url(#bld3)"/>
  <rect x="406" y="207" width="6" height="4" fill="#fbbf24" opacity="0.7"/>
  <rect x="416" y="207" width="6" height="4" fill="#fbbf24" opacity="0.4"/>
  <rect x="406" y="218" width="6" height="4" fill="#fbbf24" opacity="0.9"/>
  <rect x="416" y="218" width="6" height="4" fill="#fbbf24" opacity="0.5"/>
  <rect x="406" y="229" width="6" height="4" fill="#fbbf24" opacity="0.6"/>
  <rect x="444" y="222" width="5" height="4" fill="#fbbf24" opacity="0.8"/>
  <rect x="453" y="222" width="5" height="4" fill="#fbbf24" opacity="0.4"/>
  <rect x="444" y="232" width="5" height="4" fill="#fbbf24" opacity="0.6"/>
  <rect x="453" y="232" width="5" height="4" fill="#fbbf24" opacity="0.9"/>
  <rect x="476" y="195" width="6" height="4" fill="#fbbf24" opacity="0.7"/>
  <rect x="476" y="205" width="6" height="4" fill="#fbbf24" opacity="0.5"/>
  <rect x="476" y="215" width="6" height="4" fill="#fbbf24" opacity="0.8"/>
  <rect x="476" y="225" width="6" height="4" fill="#fbbf24" opacity="0.3"/>
  <rect x="536" y="204" width="5" height="4" fill="#fbbf24" opacity="0.7"/>
  <rect x="536" y="215" width="5" height="4" fill="#fbbf24" opacity="0.9"/>
  <rect x="536" y="226" width="5" height="4" fill="#fbbf24" opacity="0.4"/>
  <rect x="590" y="215" width="6" height="4" fill="#fbbf24" opacity="0.6"/>
  <rect x="600" y="215" width="6" height="4" fill="#fbbf24" opacity="0.8"/>
  <rect x="590" y="226" width="6" height="4" fill="#fbbf24" opacity="0.4"/>
  <rect x="600" y="226" width="6" height="4" fill="#fbbf24" opacity="0.7"/>

  <rect x="0" y="295" width="680" height="8" fill="#1c1c1c"/>
  <rect x="0" y="303" width="680" height="18" fill="#1a1a1a"/>
  <rect x="0" y="260" width="680" height="44" fill="#212121"/>
  <line x1="0" y1="282" x2="680" y2="282" stroke="#4a4a4a" stroke-width="0.8" stroke-dasharray="22 14"/>
  <line x1="0" y1="271" x2="680" y2="271" stroke="#363636" stroke-width="0.5" stroke-dasharray="16 20"/>
  <line x1="0" y1="293" x2="680" y2="293" stroke="#363636" stroke-width="0.5" stroke-dasharray="16 20"/>
  <line x1="0" y1="260" x2="680" y2="260" stroke="#b8880a" stroke-width="1.8"/>
  <line x1="0" y1="303" x2="680" y2="303" stroke="#b8880a" stroke-width="1.8"/>
  <rect x="0" y="262" width="350" height="17" fill="url(#road1)" opacity="0.25"/>
  <rect x="330" y="285" width="350" height="17" fill="url(#road2)" opacity="0.3"/>

  <rect x="42" y="264" width="42" height="17" rx="3" fill="#d97706"/>
  <rect x="46" y="266" width="12" height="7" rx="1" fill="#1a3a52" opacity="0.5"/>
  <rect x="60" y="266" width="12" height="7" rx="1" fill="#1a3a52" opacity="0.5"/>
  <circle cx="47" cy="281" r="3.5" fill="#111"/>
  <circle cx="47" cy="281" r="1.8" fill="#333"/>
  <circle cx="79" cy="281" r="3.5" fill="#111"/>
  <circle cx="79" cy="281" r="1.8" fill="#333"/>
  <rect x="82" y="268" width="5" height="8" rx="1" fill="#ef4444" opacity="0.9"/>

  <rect x="116" y="264" width="42" height="17" rx="3" fill="#2563eb"/>
  <rect x="120" y="266" width="12" height="7" rx="1" fill="#1a3a52" opacity="0.5"/>
  <rect x="134" y="266" width="12" height="7" rx="1" fill="#1a3a52" opacity="0.5"/>
  <circle cx="121" cy="281" r="3.5" fill="#111"/>
  <circle cx="121" cy="281" r="1.8" fill="#333"/>
  <circle cx="153" cy="281" r="3.5" fill="#111"/>
  <circle cx="153" cy="281" r="1.8" fill="#333"/>
  <rect x="156" y="268" width="5" height="8" rx="1" fill="#ef4444" opacity="0.9"/>

  <rect x="188" y="264" width="38" height="17" rx="3" fill="#059669"/>
  <rect x="192" y="266" width="11" height="7" rx="1" fill="#1a3a52" opacity="0.5"/>
  <rect x="205" y="266" width="11" height="7" rx="1" fill="#1a3a52" opacity="0.5"/>
  <circle cx="193" cy="281" r="3.5" fill="#111"/>
  <circle cx="193" cy="281" r="1.8" fill="#333"/>
  <circle cx="221" cy="281" r="3.5" fill="#111"/>
  <circle cx="221" cy="281" r="1.8" fill="#333"/>
  <rect x="224" y="268" width="5" height="8" rx="1" fill="#ef4444" opacity="0.9"/>

  <rect x="248" y="264" width="38" height="17" rx="3" fill="#7c3aed"/>
  <rect x="252" y="266" width="11" height="7" rx="1" fill="#1a3a52" opacity="0.5"/>
  <rect x="265" y="266" width="11" height="7" rx="1" fill="#1a3a52" opacity="0.5"/>
  <circle cx="253" cy="281" r="3.5" fill="#111"/>
  <circle cx="253" cy="281" r="1.8" fill="#333"/>
  <circle cx="281" cy="281" r="3.5" fill="#111"/>
  <circle cx="281" cy="281" r="1.8" fill="#333"/>
  <rect x="284" y="268" width="5" height="8" rx="1" fill="#ef4444" opacity="0.9"/>

  <rect x="390" y="285" width="42" height="17" rx="3" fill="#dc2626"/>
  <rect x="408" y="287" width="12" height="7" rx="1" fill="#1a3a52" opacity="0.5"/>
  <rect x="422" y="287" width="12" height="7" rx="1" fill="#1a3a52" opacity="0.5"/>
  <circle cx="395" cy="302" r="3.5" fill="#111"/>
  <circle cx="395" cy="302" r="1.8" fill="#333"/>
  <circle cx="427" cy="302" r="3.5" fill="#111"/>
  <circle cx="427" cy="302" r="1.8" fill="#333"/>
  <rect x="386" y="290" width="5" height="8" rx="1" fill="#fde68a" opacity="0.95"/>
  <ellipse cx="382" cy="294" rx="12" ry="5" fill="#fde68a" opacity="0.14"/>

  <rect x="468" y="285" width="42" height="17" rx="3" fill="#b45309"/>
  <rect x="486" y="287" width="12" height="7" rx="1" fill="#1a3a52" opacity="0.5"/>
  <rect x="500" y="287" width="12" height="7" rx="1" fill="#1a3a52" opacity="0.5"/>
  <circle cx="473" cy="302" r="3.5" fill="#111"/>
  <circle cx="473" cy="302" r="1.8" fill="#333"/>
  <circle cx="505" cy="302" r="3.5" fill="#111"/>
  <circle cx="505" cy="302" r="1.8" fill="#333"/>
  <rect x="464" y="290" width="5" height="8" rx="1" fill="#fde68a" opacity="0.95"/>
  <ellipse cx="460" cy="294" rx="12" ry="5" fill="#fde68a" opacity="0.12"/>

  <rect x="548" y="285" width="44" height="17" rx="3" fill="#0891b2"/>
  <rect x="566" y="287" width="12" height="7" rx="1" fill="#1a3a52" opacity="0.5"/>
  <rect x="580" y="287" width="12" height="7" rx="1" fill="#1a3a52" opacity="0.5"/>
  <circle cx="553" cy="302" r="3.5" fill="#111"/>
  <circle cx="553" cy="302" r="1.8" fill="#333"/>
  <circle cx="587" cy="302" r="3.5" fill="#111"/>
  <circle cx="587" cy="302" r="1.8" fill="#333"/>
  <rect x="544" y="290" width="5" height="8" rx="1" fill="#fde68a" opacity="0.95"/>
  <ellipse cx="540" cy="294" rx="12" ry="5" fill="#fde68a" opacity="0.12"/>

  <rect x="636" y="285" width="44" height="17" rx="3" fill="#be185d"/>
  <rect x="654" y="287" width="12" height="7" rx="1" fill="#1a3a52" opacity="0.5"/>
  <circle cx="641" cy="302" r="3.5" fill="#111"/>
  <circle cx="641" cy="302" r="1.8" fill="#333"/>
  <circle cx="675" cy="302" r="3.5" fill="#111"/>
  <circle cx="675" cy="302" r="1.8" fill="#333"/>
  <rect x="632" y="290" width="5" height="8" rx="1" fill="#fde68a" opacity="0.9"/>

  <line x1="185" y1="258" x2="185" y2="220" stroke="#555" stroke-width="2.5"/>
  <path d="M185 220 Q185 210 196 210" stroke="#555" stroke-width="2.5" fill="none"/>
  <ellipse cx="206" cy="210" rx="10" ry="5" fill="#ffe066" opacity="0.55"/>
  <ellipse cx="206" cy="213" rx="22" ry="9" fill="#ffe066" opacity="0.09"/>

  <line x1="495" y1="258" x2="495" y2="220" stroke="#555" stroke-width="2.5"/>
  <path d="M495 220 Q495 210 484 210" stroke="#555" stroke-width="2.5" fill="none"/>
  <ellipse cx="474" cy="210" rx="10" ry="5" fill="#ffe066" opacity="0.55"/>
  <ellipse cx="474" cy="213" rx="22" ry="9" fill="#ffe066" opacity="0.09"/>

  <line x1="340" y1="258" x2="340" y2="240" stroke="#555" stroke-width="2.5"/>
  <rect x="334" y="226" width="10" height="26" rx="2" fill="#2a2a2a"/>
  <circle cx="339" cy="231" r="3" fill="#ef4444" opacity="0.95"/>
  <circle cx="339" cy="239" r="3" fill="#363636" opacity="0.5"/>
  <circle cx="339" cy="247" r="3" fill="#22c55e" opacity="0.3"/>

  <rect x="0" y="392" width="680" height="68" fill="#060f1c" opacity="0.92"/>
  <rect x="22" y="404" width="3" height="44" fill="#f97316" rx="1"/>
  <text x="34" y="424" font-family="system-ui,sans-serif" font-size="22" font-weight="700" fill="#fbbf24">KinshasaFlow</text>
  <text x="34" y="445" font-family="system-ui,sans-serif" font-size="12" fill="#94a3b8">Surveillance du trafic en temps réel · Boulevard du 30 Juin, RDC</text>
  <rect x="560" y="408" width="100" height="28" rx="14" fill="#1e3a1e"/>
  <circle cx="578" cy="422" r="5" fill="#22c55e"/>
  <circle cx="578" cy="422" r="8" fill="#22c55e" opacity="0.25"/>
  <text x="590" y="427" font-family="system-ui,sans-serif" font-size="12" font-weight="600" fill="#22c55e">LIVE</text>
  <rect x="560" y="442" width="100" height="14" rx="3" fill="#1a2a3a" opacity="0.7"/>
  <rect x="560" y="442" width="65" height="14" rx="3" fill="#f97316" opacity="0.7"/>
  <text x="612" y="453" font-family="system-ui,sans-serif" font-size="10" fill="#fff" text-anchor="middle">trafic modéré</text>

  <rect x="0" y="0" width="680" height="460" rx="18" fill="none" stroke="#f97316" stroke-width="1" opacity="0.25"/>
</g>
</svg>
